<?xml version="1.0" encoding="UTF-8" standalone="no"?>
<!DOCTYPE svg PUBLIC "-//W3C//DTD SVG 1.1//EN"
 "http://www.w3.org/Graphics/SVG/1.1/DTD/svg11.dtd">
<!-- Generated by graphviz version 2.42.3 (20191010.1750)
 -->
<!-- Title: G Pages: 1 -->
<svg width="487pt" height="103pt"
 viewBox="0.00 0.00 487.00 103.00" xmlns="http://www.w3.org/2000/svg" xmlns:xlink="http://www.w3.org/1999/xlink">
<g id="graph0" class="graph" transform="scale(1 1) rotate(0) translate(4 99)">
<title>G</title>
<polygon fill="white" stroke="transparent" points="-4,4 -4,-99 483,-99 483,4 -4,4"/>
<g id="clust1" class="cluster">
<title>cluster_ct</title>
<polygon fill="lightgrey" stroke="lightgrey" points="8,-11 8,-86 258,-86 258,-11 8,-11"/>
<text text-anchor="middle" x="133" y="-70.8" font-family="Times,serif" font-size="14.00">Spec transformation (compile&#45;time)</text>
</g>
<g id="clust2" class="cluster">
<title>cluster_rt</title>
<polygon fill="lightgrey" stroke="lightgrey" points="278,-10 278,-87 471,-87 471,-10 278,-10"/>
<text text-anchor="middle" x="374.5" y="-71.8" font-family="Times,serif" font-size="14.00">Data transformation (runtime)</text>
</g>
<!-- ucl -->
<g id="node1" class="node">
<title>ucl</title>
<polygon fill="#6666ff" stroke="#6666ff" points="52,-49 16,-49 16,-25 52,-25 52,-19 70,-37 52,-55 52,-49"/>
<text text-anchor="middle" x="43" y="-33.3" font-family="Times,serif" font-size="14.00" fill="white">UCL</text>
</g>
<!-- json -->
<g id="node2" class="node">
<title>json</title>
<polygon fill="#6666ff" stroke="#6666ff" points="142,-49 106,-49 106,-25 142,-25 142,-19 160,-37 142,-55 142,-49"/>
<text text-anchor="middle" x="133" y="-33.3" font-family="Times,serif" font-size="14.00" fill="white">JSON</text>
</g>
<!-- ucl&#45;&gt;json -->
<!-- ast -->
<g id="node3" class="node">
<title>ast</title>
<polygon fill="#6666ff" stroke="#6666ff" points="250,-55 196,-55 196,-19 250,-19 250,-55"/>
<text text-anchor="middle" x="223" y="-33.3" font-family="Times,serif" font-size="14.00" fill="white">AST</text>
</g>
<!-- json&#45;&gt;ast -->
<!-- obj -->
<g id="node4" class="node">
<title>obj</title>
<polygon fill="#b266ff" stroke="#b266ff" points="373,-56 286,-56 286,-18 373,-18 373,-56"/>
<text text-anchor="middle" x="329.5" y="-40.8" font-family="Times,serif" font-size="14.00" fill="white">User&#45;defined</text>
<text text-anchor="middle" x="329.5" y="-25.8" font-family="Times,serif" font-size="14.00" fill="white">Nim Object</text>
</g>
<!-- ast&#45;&gt;obj -->
<g id="edge3" class="edge">
<title>ast&#45;&gt;obj</title>
<path fill="none" stroke="black" d="M250.15,-37C250.15,-37 275.85,-37 275.85,-37"/>
<polygon fill="black" stroke="black" points="285.85,-37 275.85,-41.5 280.85,-37 275.85,-37 275.85,-37 275.85,-37 280.85,-37 275.85,-32.5 285.85,-37 285.85,-37"/>
</g>
<!-- bin -->
<g id="node5" class="node">
<title>bin</title>
<polygon fill="#b266ff" stroke="#b266ff" points="463,-49 427,-49 427,-55 409,-37 427,-19 427,-25 463,-25 463,-49"/>
<text text-anchor="middle" x="436" y="-33.3" font-family="Times,serif" font-size="14.00" fill="white">Binary</text>
</g>
<!-- obj&#45;&gt;bin -->
<!-- bin&#45;&gt;ast -->
<g id="edge5" class="edge">
<title>bin&#45;&gt;ast</title>
<path fill="none" stroke="black" d="M436,-18.93C436,-9.54 436,0 436,0 436,0 223,0 223,0 223,0 223,-8.93 223,-8.93"/>
<polygon fill="black" stroke="black" points="223,-18.93 218.5,-8.93 223,-13.93 223,-8.93 223,-8.93 223,-8.93 223,-13.93 227.5,-8.93 223,-18.93 223,-18.93"/>
</g>
</g>
</svg>
