<?xml version="1.0" encoding="UTF-8" standalone="no"?>
<!DOCTYPE svg PUBLIC "-//W3C//DTD SVG 1.1//EN"
 "http://www.w3.org/Graphics/SVG/1.1/DTD/svg11.dtd">
<!-- Generated by graphviz version 2.42.3 (20191010.1750)
 -->
<!-- Title: G Pages: 1 -->
<svg width="397pt" height="101pt"
 viewBox="0.00 0.00 397.00 101.15" xmlns="http://www.w3.org/2000/svg" xmlns:xlink="http://www.w3.org/1999/xlink">
<g id="graph0" class="graph" transform="scale(1 1) rotate(0) translate(4 97.15)">
<title>G</title>
<polygon fill="white" stroke="transparent" points="-4,4 -4,-97.15 393,-97.15 393,4 -4,4"/>
<g id="clust1" class="cluster">
<title>cluster_ct</title>
<polygon fill="lightgrey" stroke="lightgrey" points="8,-9.15 8,-84.15 168,-84.15 168,-9.15 8,-9.15"/>
<text text-anchor="middle" x="88" y="-68.95" font-family="Times,serif" font-size="14.00">Spec (compile&#45;time)</text>
</g>
<g id="clust2" class="cluster">
<title>cluster_rt</title>
<polygon fill="lightgrey" stroke="lightgrey" points="188,-8.15 188,-85.15 381,-85.15 381,-8.15 188,-8.15"/>
<text text-anchor="middle" x="284.5" y="-69.95" font-family="Times,serif" font-size="14.00">Data (runtime)</text>
</g>
<!-- json -->
<g id="node1" class="node">
<title>json</title>
<polygon fill="#6666ff" stroke="#6666ff" points="52,-47.15 16,-47.15 16,-23.15 52,-23.15 52,-17.15 70,-35.15 52,-53.15 52,-47.15"/>
<text text-anchor="middle" x="43" y="-31.45" font-family="Times,serif" font-size="14.00" fill="white">JSON</text>
</g>
<!-- ast -->
<g id="node2" class="node">
<title>ast</title>
<polygon fill="#6666ff" stroke="#6666ff" points="160,-53.15 106,-53.15 106,-17.15 160,-17.15 160,-53.15"/>
<text text-anchor="middle" x="133" y="-31.45" font-family="Times,serif" font-size="14.00" fill="white">AST</text>
</g>
<!-- json&#45;&gt;ast -->
<!-- obj -->
<g id="node3" class="node">
<title>obj</title>
<polygon fill="#b266ff" stroke="#b266ff" points="283,-54.15 196,-54.15 196,-16.15 283,-16.15 283,-54.15"/>
<text text-anchor="middle" x="239.5" y="-38.95" font-family="Times,serif" font-size="14.00" fill="white">User&#45;defined</text>
<text text-anchor="middle" x="239.5" y="-23.95" font-family="Times,serif" font-size="14.00" fill="white">Nim Object</text>
</g>
<!-- ast&#45;&gt;obj -->
<g id="edge2" class="edge">
<title>ast&#45;&gt;obj</title>
<path fill="none" stroke="black" d="M160.1,-35.15C167.83,-35.15 176.6,-35.15 185.4,-35.15"/>
<polygon fill="black" stroke="black" points="195.68,-35.15 185.68,-39.65 190.68,-35.15 185.68,-35.15 185.68,-35.15 185.68,-35.15 190.68,-35.15 185.68,-30.65 195.68,-35.15 195.68,-35.15"/>
</g>
<!-- bin -->
<g id="node4" class="node">
<title>bin</title>
<polygon fill="#b266ff" stroke="#b266ff" points="373,-47.15 337,-47.15 337,-53.15 319,-35.15 337,-17.15 337,-23.15 373,-23.15 373,-47.15"/>
<text text-anchor="middle" x="346" y="-31.45" font-family="Times,serif" font-size="14.00" fill="white">Binary</text>
</g>
<!-- obj&#45;&gt;bin -->
<!-- bin&#45;&gt;ast -->
<g id="edge4" class="edge">
<title>bin&#45;&gt;ast</title>
<path fill="none" stroke="black" d="M318.99,-20.44C308.21,-15.14 295.35,-9.81 283,-7.15 241.72,1.73 229.02,2.85 188,-7.15 181.74,-8.68 175.39,-11.07 169.36,-13.83"/>
<polygon fill="black" stroke="black" points="160.19,-18.38 167.14,-9.9 164.67,-16.16 169.15,-13.93 169.15,-13.93 169.15,-13.93 164.67,-16.16 171.15,-17.96 160.19,-18.38 160.19,-18.38"/>
</g>
</g>
</svg>
