<?xml version="1.0" encoding="UTF-8" standalone="no"?>
<!DOCTYPE svg PUBLIC "-//W3C//DTD SVG 1.1//EN"
 "http://www.w3.org/Graphics/SVG/1.1/DTD/svg11.dtd">
<!-- Generated by graphviz version 2.42.3 (20191010.1750)
 -->
<!-- Title: G Pages: 1 -->
<svg width="513pt" height="103pt"
 viewBox="0.00 0.00 513.00 103.00" xmlns="http://www.w3.org/2000/svg" xmlns:xlink="http://www.w3.org/1999/xlink">
<g id="graph0" class="graph" transform="scale(1 1) rotate(0) translate(4 99)">
<title>G</title>
<polygon fill="white" stroke="transparent" points="-4,4 -4,-99 509,-99 509,4 -4,4"/>
<g id="clust1" class="cluster">
<title>cluster_ct</title>
<polygon fill="lightgrey" stroke="lightgrey" points="8,-11 8,-86 284,-86 284,-11 8,-11"/>
<text text-anchor="middle" x="146" y="-70.8" font-family="Times,serif" font-size="14.00">Spec transformation (compile&#45;time)</text>
</g>
<g id="clust2" class="cluster">
<title>cluster_rt</title>
<polygon fill="lightgrey" stroke="lightgrey" points="304,-10 304,-87 497,-87 497,-10 304,-10"/>
<text text-anchor="middle" x="400.5" y="-71.8" font-family="Times,serif" font-size="14.00">Data transformation (runtime)</text>
</g>
<!-- json -->
<g id="node1" class="node">
<title>json</title>
<polygon fill="#6666ff" stroke="#6666ff" points="52,-49 16,-49 16,-25 52,-25 52,-19 70,-37 52,-55 52,-49"/>
<text text-anchor="middle" x="43" y="-33.3" font-family="Times,serif" font-size="14.00" fill="white">JSON</text>
</g>
<!-- ksast -->
<g id="node2" class="node">
<title>ksast</title>
<polygon fill="#6666ff" stroke="#6666ff" points="151,-49 106,-49 106,-25 151,-25 151,-19 169,-37 151,-55 151,-49"/>
<text text-anchor="middle" x="137.5" y="-33.3" font-family="Times,serif" font-size="14.00" fill="white">KS AST</text>
</g>
<!-- json&#45;&gt;ksast -->
<!-- nast -->
<g id="node3" class="node">
<title>nast</title>
<polygon fill="#6666ff" stroke="#6666ff" points="276,-55 205,-55 205,-19 276,-19 276,-55"/>
<text text-anchor="middle" x="240.5" y="-33.3" font-family="Times,serif" font-size="14.00" fill="white">Nim AST</text>
</g>
<!-- ksast&#45;&gt;nast -->
<!-- obj -->
<g id="node4" class="node">
<title>obj</title>
<polygon fill="#b266ff" stroke="#b266ff" points="399,-56 312,-56 312,-18 399,-18 399,-56"/>
<text text-anchor="middle" x="355.5" y="-40.8" font-family="Times,serif" font-size="14.00" fill="white">User&#45;defined</text>
<text text-anchor="middle" x="355.5" y="-25.8" font-family="Times,serif" font-size="14.00" fill="white">Nim Object</text>
</g>
<!-- nast&#45;&gt;obj -->
<g id="edge3" class="edge">
<title>nast&#45;&gt;obj</title>
<path fill="none" stroke="black" d="M276.26,-37C276.26,-37 301.67,-37 301.67,-37"/>
<polygon fill="black" stroke="black" points="311.67,-37 301.67,-41.5 306.67,-37 301.67,-37 301.67,-37 301.67,-37 306.67,-37 301.67,-32.5 311.67,-37 311.67,-37"/>
</g>
<!-- bin -->
<g id="node5" class="node">
<title>bin</title>
<polygon fill="#b266ff" stroke="#b266ff" points="489,-49 453,-49 453,-55 435,-37 453,-19 453,-25 489,-25 489,-49"/>
<text text-anchor="middle" x="462" y="-33.3" font-family="Times,serif" font-size="14.00" fill="white">Binary</text>
</g>
<!-- obj&#45;&gt;bin -->
<!-- bin&#45;&gt;nast -->
<g id="edge5" class="edge">
<title>bin&#45;&gt;nast</title>
<path fill="none" stroke="black" d="M462,-18.93C462,-9.54 462,0 462,0 462,0 241,0 241,0 241,0 241,-8.93 241,-8.93"/>
<polygon fill="black" stroke="black" points="241,-18.93 236.5,-8.93 241,-13.93 241,-8.93 241,-8.93 241,-8.93 241,-13.93 245.5,-8.93 241,-18.93 241,-18.93"/>
</g>
</g>
</svg>
